<svg width="40" height="40" viewBox="0 0 40 40" fill="none" xmlns="http://www.w3.org/2000/svg">
  <defs>
    <linearGradient id="iconOrange" x1="0%" y1="0%" x2="100%" y2="100%">
      <stop offset="0%" style="stop-color:#ff7300;stop-opacity:1" />
      <stop offset="100%" style="stop-color:#ffb800;stop-opacity:1" />
    </linearGradient>
  </defs>

  <!-- Hourglass icon -->
  <path d="M28 8C28 5.79086 26.2091 4 24 4H16C13.7909 4 12 5.79086 12 8V12C12 14.2091 13.7909 16 16 16H20C22.2091 16 24 14.2091 24 12V8Z" fill="url(#iconOrange)"/>
  <path d="M28 32C28 34.2091 26.2091 36 24 36H16C13.7909 36 12 34.2091 12 32V28C12 25.7909 13.7909 24 16 24H20C22.2091 24 24 25.7909 24 28V32Z" fill="url(#iconOrange)"/>
  <path d="M16 16L24 24M24 16L16 24" stroke="url(#iconOrange)" stroke-width="2.5" stroke-linecap="round"/>
  <circle cx="20" cy="20" r="3" fill="url(#iconOrange)"/>
</svg>
